<?xml version="1.0" standalone="no"?>
<!DOCTYPE svg PUBLIC "-//W3C//DTD SVG 20010904//EN"
 "http://www.w3.org/TR/2001/REC-SVG-20010904/DTD/svg10.dtd">
<svg version="1.0" xmlns="http://www.w3.org/2000/svg"
 width="512.000000pt" height="512.000000pt" viewBox="0 0 512.000000 512.000000"
 preserveAspectRatio="xMidYMid meet">
<metadata>
Created by potrace 1.14, written by Peter Selinger 2001-2017
</metadata>
<g transform="translate(0.000000,512.000000) scale(0.100000,-0.100000)"
fill="#000000" stroke="none">
<path d="M2379 5115 c-2 -1 -35 -6 -74 -9 -302 -27 -640 -128 -924 -277 -98
-51 -308 -182 -360 -225 -9 -7 -27 -22 -41 -33 l-25 -20 43 -7 c40 -6 44 -10
67 -60 13 -29 33 -80 44 -113 l20 -62 -69 -71 c-44 -45 -75 -88 -83 -113 -11
-31 -23 -45 -60 -64 -52 -28 -56 -34 -88 -158 l-24 -93 -35 1 c-19 1 -46 4
-60 8 -28 8 -29 12 -55 216 -9 72 -18 139 -20 150 -2 11 -4 29 -4 40 -1 18 -3
17 -18 -5 -9 -14 -35 -47 -58 -75 -50 -60 -137 -185 -194 -278 -32 -52 -37
-65 -21 -57 11 6 20 7 21 3 3 -37 59 -287 98 -441 l28 -114 -37 -26 c-21 -15
-80 -56 -131 -92 -87 -60 -282 -238 -294 -267 -18 -49 -26 -384 -12 -538 6
-66 32 -241 41 -280 1 -5 8 -36 16 -67 14 -62 7 -57 130 -101 23 -8 83 -62
178 -158 142 -145 142 -146 174 -235 17 -49 35 -94 40 -101 12 -15 175 -110
323 -188 61 -32 111 -59 112 -60 2 -1 -17 -69 -42 -151 -24 -82 -49 -168 -55
-191 -8 -34 -15 -42 -33 -41 -12 0 -51 0 -86 -1 l-65 -1 35 -36 c41 -43 174
-156 244 -208 28 -21 57 -43 65 -49 41 -33 194 -125 293 -177 237 -124 536
-224 767 -256 19 -3 78 -11 130 -18 94 -13 506 -15 560 -2 14 3 47 8 74 10 26
3 56 7 65 10 9 3 34 7 56 11 251 37 611 177 876 341 560 347 972 914 1133
1559 66 264 91 596 48 637 -4 3 -54 -46 -111 -109 l-104 -116 -2 -71 c-1 -68
-4 -75 -48 -135 -30 -41 -48 -59 -51 -50 -3 8 -19 68 -36 134 -59 226 -68 248
-144 361 l-72 108 -89 23 c-50 12 -103 25 -120 28 -16 3 -34 7 -40 9 -5 1 -39
9 -74 17 -55 12 -72 21 -125 71 -33 31 -65 57 -71 57 -5 0 -21 -8 -35 -18 -21
-17 -23 -22 -13 -43 7 -12 22 -48 34 -78 34 -87 49 -120 56 -120 3 0 34 16 69
35 l63 35 86 -76 c47 -43 82 -80 78 -84 -15 -14 -267 -185 -397 -269 -106 -69
-130 -81 -141 -69 -7 7 -29 49 -48 93 -19 44 -82 177 -140 296 l-106 216 -30
-5 c-17 -2 -31 -7 -31 -11 0 -4 35 -90 79 -192 43 -101 109 -260 146 -354 37
-93 71 -174 75 -178 4 -5 70 23 145 62 76 40 140 70 142 67 4 -4 -7 -44 -63
-217 l-35 -107 -87 -79 c-48 -44 -117 -106 -153 -138 l-67 -59 4 -182 3 -183
-87 -56 c-74 -48 -100 -74 -175 -169 -48 -61 -127 -152 -175 -203 -83 -88 -89
-93 -137 -98 -27 -3 -63 -7 -80 -9 -16 -2 -57 -7 -90 -11 l-60 -6 -60 102
c-33 56 -87 154 -120 217 l-61 114 34 130 33 129 -61 177 c-131 378 -112 337
-151 336 -19 -1 -81 -4 -139 -7 -58 -4 -161 -10 -230 -13 -69 -3 -140 -7 -159
-9 -38 -3 -40 -1 -269 222 l-105 101 7 90 c4 49 9 102 10 118 11 89 26 233 30
288 3 33 25 65 147 215 169 206 192 231 222 232 12 0 29 2 37 4 8 2 31 6 50 9
19 4 69 13 110 21 41 8 118 22 170 30 52 9 106 18 120 21 14 2 46 7 71 10 l46
6 17 -80 17 -81 125 -81 c69 -44 129 -81 134 -83 5 -1 31 28 57 64 l48 66 130
-33 c278 -73 260 -70 298 -50 18 10 41 24 49 30 17 13 56 141 46 151 -3 3 -16
8 -29 10 -41 8 -133 25 -164 30 -61 10 -73 15 -79 32 -23 66 -97 152 -133 153
-6 0 -21 -38 -34 -85 -12 -47 -25 -85 -28 -85 -4 0 -15 12 -26 27 -11 14 -37
45 -58 67 -36 39 -37 44 -35 105 l1 63 -72 54 c-63 47 -159 104 -176 104 -5 0
0 -109 6 -114 2 -2 48 -31 101 -66 l97 -62 -42 -45 c-23 -24 -43 -49 -45 -54
-7 -19 -22 -6 -93 84 -41 50 -96 115 -124 144 l-50 51 -120 -57 -120 -58 -85
-127 -84 -126 -36 5 c-20 3 -45 7 -56 9 -12 2 -45 7 -75 11 -93 11 -86 -3 -85
163 l1 147 30 -1 c17 -1 85 -4 153 -7 67 -3 122 -2 122 2 0 4 -18 36 -41 71
-22 35 -53 91 -69 124 l-27 61 36 11 c20 7 72 22 116 35 77 22 83 26 153 100
50 53 80 78 95 77 78 -3 79 -2 62 57 -4 14 4 30 29 54 l34 33 21 -47 c12 -26
21 -51 21 -56 0 -5 33 -9 73 -10 39 0 107 -2 149 -3 l76 -3 36 78 35 78 50
-14 c57 -15 60 -11 31 44 l-19 39 67 13 c37 7 70 14 75 15 4 1 10 2 15 3 4 1
-6 10 -23 21 -17 11 -40 18 -55 15 -120 -19 -112 -20 -149 27 -19 24 -39 49
-44 55 -6 9 -1 16 17 24 32 15 61 58 48 71 -18 18 -68 -6 -119 -59 -29 -30
-53 -60 -53 -68 0 -8 18 -26 39 -41 l39 -26 -19 -41 c-11 -23 -27 -59 -35 -79
-15 -34 -23 -40 -81 -58 -36 -11 -66 -20 -67 -20 -2 0 -20 38 -40 84 l-38 84
-71 -30 c-66 -27 -75 -28 -110 -17 l-38 13 6 60 c4 34 7 66 8 73 0 7 23 20 51
30 37 13 68 35 111 81 l61 62 104 21 c88 17 127 19 245 14 77 -4 156 -8 175
-10 223 -22 397 -22 855 0 33 2 82 3 108 4 l49 1 -29 23 c-120 100 -415 271
-583 338 -160 63 -360 121 -515 148 -57 10 -78 13 -170 27 -44 6 -461 15 -466
9z m-175 -789 l77 -109 -23 -26 c-13 -14 -24 -27 -24 -29 -3 -6 -166 -62 -181
-62 -12 0 -13 9 -8 48 4 26 8 65 11 87 l4 40 -30 -50 c-16 -27 -31 -54 -33
-59 -3 -9 -137 -22 -137 -13 0 2 7 26 15 53 13 42 24 55 75 91 49 35 60 48 60
71 0 24 6 29 58 48 31 12 58 21 59 20 0 -1 35 -50 77 -110z m1719 -3011 c5
-57 2 -65 -46 -155 -27 -52 -65 -118 -83 -146 l-34 -52 -50 16 c-39 12 -49 20
-45 33 3 10 8 27 10 39 2 12 6 29 9 38 3 9 7 35 10 57 10 65 17 95 24 95 4 0
50 31 102 69 52 38 96 68 97 67 1 -1 4 -28 6 -61z"/>
</g>
</svg>
